<svg width="20" height="20" viewBox="2 2 20 20" fill="none" xmlns="http://www.w3.org/2000/svg">
<path fill-rule="evenodd" d="M12 2C10.6868 2 9.38642 2.25866 8.17317 2.76121C6.95991 3.26375 5.85752 4.00035 4.92893 4.92893C3.05357 6.8043 2 9.34784 2 12C2 13.3132 2.25866 14.6136 2.7612 15.8268C3.26375 17.0401 4.00035 18.1425 4.92893 19.0711C6.8043 20.9464 9.34784 22 12 22V20C9.87827 20 7.84344 19.1571 6.34315 17.6569C4.84285 16.1566 4 14.1217 4 12C4 9.87827 4.84285 7.84344 6.34315 6.34315C7.84344 4.84286 9.87827 4 12 4C14.1217 4 16.1566 4.84285 17.6569 6.34315C19.1571 7.84344 20 9.87827 20 12H22C22 10.6868 21.7413 9.38642 21.2388 8.17317C20.7362 6.95991 19.9997 5.85752 19.0711 4.92893C17.1957 3.05357 14.6522 2 12 2Z" fill="currentColor"/>
</svg>
